<svg xmlns="http://www.w3.org/2000/svg" xmlns:xlink="http://www.w3.org/1999/xlink" viewBox="0 0 1040 400" xmlns:v="https://vecta.io/nano"><style><![CDATA[.Q{fill:#ef7457}.R{fill:#86dfc9}.S{fill:#212b36}.T{fill:#637381}.U{fill:#53b53d}.V{fill:#ffc95c}.W{fill:#5c6b77}.X{fill:#ec5632}]]></style><path d="M-19.7-5.4h1068.6v410.8H-19.7z" class="S"/><path d="M682.8 319.4c.1 0 0 0-.2-.1-.6-.4-1.2-.7-1.8-1-8-4.8-36.5-28.3-34-119a121.25 121.25 0 0 0 .9-14.8c0-63.8-46.8-116.6-108-126v-16a21.47 21.47 0 1 0-43 0v16.7c-59.2 11-104 62.9-104 125.3 0 2.4.1 4.8.2 7.2v.7c4.2 97-25.9 121.3-33.9 126-.5.2-1 .5-1.5.8l-.4.2h.1c-4.3 2.8-7.2 7.6-7.2 13.1v.9c0 8.6 7 15.6 15.6 15.6H461c9.8 21.9 31.8 37.1 57.3 37.1s47.5-15.2 57.3-37.1h99c8.6 0 15.6-7 15.6-15.6v-.9c-.1-5.5-3-10.3-7.4-13.1z" class="T"/><defs><path id="A" d="M682.8 319.4c.1 0 0 0-.2-.1-.6-.4-1.2-.7-1.8-1-8-4.8-36.5-28.3-34-119a121.25 121.25 0 0 0 .9-14.8c0-63.8-46.8-116.6-108-126v-16a21.47 21.47 0 1 0-43 0v16.7c-59.2 11-104 62.9-104 125.3 0 2.4.1 4.8.2 7.2v.7c4.2 97-25.9 121.3-33.9 126-.5.2-1 .5-1.5.8l-.4.2h.1c-4.3 2.8-7.2 7.6-7.2 13.1v.9c0 8.6 7 15.6 15.6 15.6H461c9.8 21.9 31.8 37.1 57.3 37.1s47.5-15.2 57.3-37.1h99c8.6 0 15.6-7 15.6-15.6v-.9c-.1-5.5-3-10.3-7.4-13.1z"/><path id="B" d="m430.5 361.5h-116.4c-7.7 0-13.9-6.2-13.9-13.9v-20.5c0-7.7 6.2-13.9 13.9-13.9h116.3c7.7 0 13.9 6.2 13.9 13.9v20.5c0 7.7-6.2 13.9-13.8 13.9z"/><path id="C" d="m775.6 341.4h-116.3c-7.7 0-13.9-6.2-13.9-13.9v-20.5c0-7.7 6.2-13.9 13.9-13.9h116.3c7.7 0 13.9 6.2 13.9 13.9v20.5c0 7.7-6.2 13.9-13.9 13.9z"/><path id="D" d="m577 123c-1.6 0-2.9-1.3-2.9-2.9v-16c0-1.6 1.3-2.9 2.9-2.9s2.9 1.3 2.9 2.9v16c0 1.6-1.3 2.9-2.9 2.9z"/><path id="E" d="m563.8 137c0 1.6-1.3 2.9-2.9 2.9h-16c-1.6 0-2.9-1.3-2.9-2.9s1.3-2.9 2.9-2.9h16c1.6 0 2.9 1.3 2.9 2.9z"/><path id="F" d="m608.7 189.9c1.6 0 2.9 1.3 2.9 2.9v16c0 1.6-1.3 2.9-2.9 2.9s-2.9-1.3-2.9-2.9v-16c0-1.6 1.3-2.9 2.9-2.9z"/><path id="G" d="m621.9 175.8c0-1.6 1.3-2.9 2.9-2.9h16c1.6 0 2.9 1.3 2.9 2.9s-1.3 2.9-2.9 2.9h-16c-1.6 0-2.9-1.3-2.9-2.9z"/></defs><use fill="#454f5b" xlink:href="#A"/><clipPath id="H"><use xlink:href="#A"/></clipPath><g clip-path="url(#H)"><defs><path id="I" d="M504.1 75.5h33.4v25.7h-33.3a1.58 1.58 0 0 1-1.6-1.6c0-.4.1-.8.4-1.1l7.9-9a1.66 1.66 0 0 0 0-2.1l-8-9.2c-.6-.7-.5-1.7.2-2.3.2-.3.6-.4 1-.4z"/></defs><use xlink:href="#I" class="T"/><clipPath id="J"><use xlink:href="#I"/></clipPath><path transform="matrix(1 -.001157 .001157 1 -.1019 .6019)" clip-path="url(#J)" d="M494.5 67.5h51v41.7h-51z" class="T"/><path d="m435.8 276.1h-116.3c-7.7 0-13.9-6.2-13.9-13.9v-20.5c0-7.7 6.2-13.9 13.9-13.9h116.3c7.7 0 13.9 6.2 13.9 13.9v20.5c-0.1 7.7-6.3 13.9-13.9 13.9z" opacity=".5" class="S"/><use xlink:href="#B" class="W"/><path d="m622.1 295.3h-116.3c-7.7 0-13.9-6.2-13.9-13.9v-20.4c0-7.7 6.2-13.9 13.9-13.9h116.3c7.7 0 13.9 6.2 13.9 13.9v20.5c0 7.6-6.2 13.8-13.9 13.8z" opacity=".5" class="S"/><path d="M439.5 327.4h-36.9c-8.8 0-14.3-9.5-9.9-17.1l36.8-63.8c4.4-7.6 15.4-7.6 19.8 0l36.8 63.8c4.4 7.6-1.1 17.1-9.9 17.1h-36.7z" class="X"/><g fill="#f9fafb"><path d="M439.5 298.2c-3 0-5.4-2.4-5.4-5.4v-20.5c0-3 2.4-5.4 5.4-5.4s5.4 2.4 5.4 5.4v20.5c.1 3-2.4 5.4-5.4 5.4z"/><circle cx="439.5" cy="306.9" r="5.4"/></g><path d="m570 240.7c-21.6 0-39.1 17.5-39.1 39.1s17.5 39.1 39.1 39.1 39.1-17.5 39.1-39.1-17.5-39.1-39.1-39.1zm0 62.7c-13.1 0-23.6-10.6-23.6-23.6 0-13.1 10.6-23.6 23.6-23.6s23.6 10.6 23.6 23.6-10.6 23.6-23.6 23.6z" class="R"/><path d="M570.1 240.7h-.5l-.2 15.4h.7c11.9 0 21.7 8.8 23.4 20.2l15.5.1c-1.6-20-18.4-35.7-38.9-35.7z" class="U"/><use xlink:href="#C" class="W"/><path d="M531-31h-.5l-.2 15.4h.7c11.9 0 21.7 8.8 23.4 20.2l15.5.1C568.3-15.3 551.5-31 531-31z" class="U"/><path d="M727.6 301.5c-12.3 1.4-19.4-3.5-22.7-6.9-1.3-1.3-3.5-1.3-4.8 0-3.4 3.4-10.4 8.3-22.7 6.9-2-.2-3.7 1.3-3.8 3.2-.3 11.6 1.1 46.1 28.9 55 27.8-8.9 29.2-43.4 28.9-55 0-1.9-1.8-3.4-3.8-3.2z" class="Q"/><path d="M705.9 326l5.9-5.9c.9-.9.9-2.5 0-3.4s-2.5-.9-3.4 0l-5.9 5.9-5.9-5.9c-.9-.9-2.5-.9-3.4 0s-.9 2.5 0 3.4l5.9 5.9-5.9 5.9c-.9.9-.9 2.5 0 3.4s2.5.9 3.4 0l5.9-5.9 5.9 5.9c.9.9 2.5.9 3.4 0s.9-2.5 0-3.4l-5.9-5.9z" fill="#fff"/><path d="M577.8 115.6h-46.4c-11 0-17.9-12-12.4-21.5l46.4-80.4c5.5-9.6 19.3-9.6 24.9 0l23.2 40.2L636.6 94c5.5 9.6-1.4 21.5-12.4 21.5h-46.4z" class="X"/><g fill="#f9fafb"><path d="m577.8 78.8c-3.8 0-6.8-3.1-6.8-6.8v-25.8c0-3.8 3.1-6.8 6.8-6.8 3.8 0 6.8 3.1 6.8 6.8v25.8c0 3.8-3.1 6.8-6.8 6.8z"/><circle cx="577.8" cy="89.7" r="6.8"/></g><path d="m502.8 189.5h-116.4c-7.7 0-13.9-6.2-13.9-13.9v-20.5c0-7.7 6.2-13.9 13.9-13.9h116.3c7.7 0 13.9 6.2 13.9 13.9v20.5c0 7.7-6.2 13.9-13.8 13.9z" opacity=".5" class="S"/><defs><path id="K" d="M518.4 181.6a1.11 1.11 0 0 1 1.1 1.1v36.4h-2.1v-36.4c0-.7.4-1.1 1-1.1z"/></defs><clipPath id="L"><use xlink:href="#K"/></clipPath><path transform="matrix(1 -.001157 .001157 1 -.2315 .6002)" clip-path="url(#L)" fill="#b8bdcc" d="M512 176.2h12.9v48.2H512z"/><defs><path id="M" d="M495.1 183.7h22.3v17.1h-22.3a1.11 1.11 0 0 1-1.1-1.1c0-.3.1-.5.3-.7l5.3-6c.4-.4.4-1 0-1.4l-5.4-6.1c-.4-.4-.3-1.1.1-1.5.3-.2.5-.3.8-.3z"/></defs><use xlink:href="#M" class="X"/><clipPath id="N"><use xlink:href="#M"/></clipPath><path transform="matrix(1 -.001157 .001157 1 -.2222 .5854)" clip-path="url(#N)" d="M488.6 178.4h34.1v27.9h-34.1z" class="R"/><defs><path id="O" d="M475.7 272.7l85.7-.1L583 390.5l-128.6.1z"/></defs><clipPath id="P"><use xlink:href="#O"/></clipPath><g clip-path="url(#P)"><defs><path id="Q" transform="matrix(1 -.001157 .001157 1 -.3834 .5973)" d="M442.5 267.3h146.8v128.6H442.5z"/></defs><clipPath id="R"><use xlink:href="#Q"/></clipPath><g clip-path="url(#R)"><defs><path id="S" transform="matrix(1 -.001157 .001157 1 -.3834 .5998)" d="M453.2 272.7h129.7v117.9H453.2z"/></defs><clipPath id="T"><use xlink:href="#S"/></clipPath><path transform="matrix(1 -.001157 .001157 1 -.3834 .6004)" clip-path="url(#T)" fill="#c4cdd5" d="M448.9 267.3h139.3v128.6H448.9z"/></g></g><defs><path id="U" d="M452.2 389.6l132.9-.2c1.2 0 2.1 1 2.1 2.1v4.3l-137.1.2v-4.3c0-1.2.9-2.1 2.1-2.1z"/></defs><clipPath id="V"><use xlink:href="#U"/></clipPath><path transform="matrix(1 -.001157 .001157 1 -.4541 .6006)" clip-path="url(#V)" fill="#b8bdcc" d="M444.7 384.1h147.9v17.1H444.7z"/><defs><path id="W" d="M508 348.3c-7.1-3.8-11.9-11.2-11.9-19.9 0-12.4 10.1-22.5 22.5-22.5s22.5 10.1 22.5 22.5c0 8.6-4.8 16.1-11.9 19.9l12 47.6-45 .1 11.8-47.7z"/></defs><clipPath id="X"><use xlink:href="#W"/></clipPath><path transform="matrix(1 -.001157 .001157 1 -.4058 .6005)" clip-path="url(#X)" fill="#454f5b" d="M490.8 300.5h55.7v100.8h-55.7z"/><defs><path id="Y" d="M467.1 254.5l102.9-.1-8.6 18.2-85.7.1z"/></defs><clipPath id="Z"><use xlink:href="#Y"/></clipPath><path transform="matrix(1 -.001157 .001157 1 -.3047 .6003)" clip-path="url(#Z)" fill="#919eab" d="M461.7 249.1h113.6V278H461.7z"/><defs><path id="a" d="M506.7 240.5v-19.3c0-1.2 1-2.1 2.1-2.1h19.3c1.2 0 2.1 1 2.1 2.1v19.3h15v-19.3c0-1.2 1-2.1 2.1-2.1h20.4c1.2 0 2.1 1 2.1 2.1v33.2l-102.9.1v-33.2c0-1.2 1-2.1 2.1-2.1h20.4c1.2 0 2.1 1 2.1 2.1v19.3l15.2-.1z"/></defs><clipPath id="b"><use xlink:href="#a"/></clipPath><path transform="matrix(1 -.001157 .001157 1 -.2737 .6002)" clip-path="url(#b)" fill="#c4cdd5" d="M461.7 213.7h113.6v46.1H461.7z"/><path d="m491.1 158.3h-116.3c-7.7 0-13.9-6.2-13.9-13.9v-20.5c0-7.7 6.2-13.9 13.9-13.9h116.3c7.7 0 13.9 6.2 13.9 13.9v20.5c0 7.6-6.2 13.9-13.9 13.9z" class="T"/><g class="W"><path d="M395.9 261.4H279.6a13.87 13.87 0 0 1-13.9-13.9V227a13.87 13.87 0 0 1 13.9-13.9h116.3a13.87 13.87 0 0 1 13.9 13.9v20.5a13.87 13.87 0 0 1-13.9 13.9zm321.7-21.9H601.3a13.87 13.87 0 0 1-13.9-13.9v-20.5a13.87 13.87 0 0 1 13.9-13.9h116.3a13.87 13.87 0 0 1 13.9 13.9v20.5a13.87 13.87 0 0 1-13.9 13.9z"/></g><g class="V"><path d="M624.1 94.8c-18 0-32.5 14.6-32.5 32.5 0 18 14.6 32.5 32.5 32.5 18 0 32.5-14.6 32.5-32.5s-14.5-32.5-32.5-32.5zm5.1 39.6c-6.3 0-11.4-5.1-11.4-11.4s5.1-11.4 11.4-11.4 11.4 5.1 11.4 11.4c-.1 6.3-5.2 11.4-11.4 11.4z"/><path d="m594 126.2l-13.2 14.5 6 6 3.7-3.7c1.4-1.4 3.7-1.4 5.2 0 1.4 1.4 1.4 3.7 0 5.2l-3.7 3.7 13.3 13.5 7.2-8-18.5-31.2z"/></g><g class="Q"><use xlink:href="#D"/><path d="m567.3 127.9c-1.1 1.1-3 1.1-4.1 0l-11.3-11.3c-1.1-1.1-1.1-3 0-4.1s3-1.1 4.1 0l11.3 11.3c1.1 1.1 1.1 2.9 0 4.1z"/><use xlink:href="#E"/><use xlink:href="#F"/><path d="m618.4 185c1.1-1.1 3-1.1 4.1 0l11.3 11.3c1.1 1.1 1.1 3 0 4.1s-3 1.1-4.1 0l-11.3-11.3c-1.1-1.2-1.1-3 0-4.1z"/><use xlink:href="#G"/></g><g class="V"><path d="M583 161.1l-27.6 27.6c-1.4 1.4-3.7 1.4-5.2 0-1.4-1.4-1.4-3.7 0-5.2l27.2-27.2-6.2-5.4-28.2 29.8v20.2l7.8 8.6H569l5.1-4.6V191l12.6.2 6.5-5.8-.7-16.2-9.5-8.1zM566.8-62.4c-18 0-32.5 14.6-32.5 32.5 0 18 14.6 32.5 32.5 32.5 18 0 32.5-14.6 32.5-32.5a32.44 32.44 0 0 0-32.5-32.5zm5 39.5c-6.3 0-11.4-5.1-11.4-11.4s5.1-11.4 11.4-11.4 11.4 5.1 11.4 11.4-5.1 11.4-11.4 11.4z"/><path d="M536.7-31.1l-13.2 14.5 6 6 3.7-3.7c1.4-1.4 3.7-1.4 5.2 0 1.4 1.4 1.4 3.7 0 5.2l-3.7 3.7L548 8.1l7.2-8-18.5-31.2z"/></g><g class="Q"><path d="M551.3 32.6c1.6 0 2.9 1.3 2.9 2.9v16c0 1.6-1.3 2.9-2.9 2.9s-2.9-1.3-2.9-2.9v-16c0-1.6 1.3-2.9 2.9-2.9zm9.8-4.9c1.1-1.1 3-1.1 4.1 0L576.5 39c1.1 1.1 1.1 3 0 4.1s-3 1.1-4.1 0l-11.3-11.3c-1.1-1.1-1.1-2.9 0-4.1zm3.4-9.1c0-1.6 1.3-2.9 2.9-2.9h16c1.6 0 2.9 1.3 2.9 2.9s-1.3 2.9-2.9 2.9h-16c-1.6 0-2.9-1.3-2.9-2.9z"/></g><g class="V"><path d="M525.7 3.8l-27.6 27.6c-1.4 1.4-3.7 1.4-5.2 0-1.4-1.4-1.4-3.7 0-5.2L520.2-1 514-6.4l-28.2 29.8v20.2l7.8 8.6h18.1l5.1-4.6V33.7l12.6.2 6.5-5.8-.7-16.2-9.5-8.1zM367.3 302.1c-18 0-32.5 14.6-32.5 32.5 0 18 14.6 32.5 32.5 32.5s32.5-14.6 32.5-32.5c0-18-14.6-32.5-32.5-32.5zm5 39.5c-6.3 0-11.4-5.1-11.4-11.4s5.1-11.4 11.4-11.4 11.4 5.1 11.4 11.4-5.1 11.4-11.4 11.4z"/><path d="M337.2 333.4L324 347.9l6 6 3.7-3.7c1.4-1.4 3.7-1.4 5.2 0s1.4 3.7 0 5.2l-3.7 3.7 13.3 13.5 7.2-8-18.5-31.2z"/></g><g class="Q"><path d="M320.2 330.2c-1.6 0-2.9-1.3-2.9-2.9v-16c0-1.6 1.3-2.9 2.9-2.9s2.9 1.3 2.9 2.9v16c0 1.6-1.3 2.9-2.9 2.9zm-9.8 4.9c-1.1 1.1-3 1.1-4.1 0L295 323.8c-1.1-1.1-1.1-3 0-4.1s3-1.1 4.1 0l11.3 11.3c1.1 1.2 1.1 3 0 4.1zm-3.4 9.2c0 1.6-1.3 2.9-2.9 2.9h-16c-1.6 0-2.9-1.3-2.9-2.9s1.3-2.9 2.9-2.9h16c1.6 0 2.9 1.3 2.9 2.9zm44.8 52.8c1.6 0 2.9 1.3 2.9 2.9v16c0 1.6-1.3 2.9-2.9 2.9s-2.9-1.3-2.9-2.9v-16c0-1.6 1.3-2.9 2.9-2.9zm9.8-4.9c1.1-1.1 3-1.1 4.1 0l11.3 11.3c1.1 1.1 1.1 3 0 4.1s-3 1.1-4.1 0l-11.3-11.3c-1.2-1.1-1.2-2.9 0-4.1zm3.4-9.1c0-1.6 1.3-2.9 2.9-2.9h16c1.6 0 2.9 1.3 2.9 2.9s-1.3 2.9-2.9 2.9h-16c-1.6 0-2.9-1.3-2.9-2.9z"/></g><path d="M326.2 368.3l-27.6 27.6c-1.4 1.4-3.7 1.4-5.2 0s-1.4-3.7 0-5.2l27.2-27.2-6.2-5.4-28.2 29.8v20.2l7.8 8.6h18.1l5.1-4.6v-13.9l12.6.2 6.5-5.8-.7-16.2-9.4-8.1z" class="V"/><path d="M427.6 123.1c-25.3 0-45.9 20.5-45.9 45.9s20.5 45.9 45.9 45.9 45.9-20.5 45.9-45.9-20.6-45.9-45.9-45.9zm0 73.7c-15.3 0-27.8-12.4-27.8-27.8 0-15.3 12.4-27.8 27.8-27.8s27.8 12.4 27.8 27.8c-.1 15.3-12.5 27.8-27.8 27.8z" class="R"/><path d="M427.7 123.1h-.6l-.2 18.1h.8c13.9 0 25.5 10.3 27.5 23.7l18.2.1c-2-23.4-21.7-41.9-45.7-41.9z" class="U"/><path d="M635 310.8a19.89 19.89 0 0 0-19.9 19.9v.8c.1 1.8 1.5 3.2 3.3 3.1 1.7-.1 3-1.4 3-3.1v-.8c0-7.5 6.1-13.5 13.5-13.5 7.5 0 13.5 6.1 13.5 13.5v.7c.1 1.7 1.5 3 3.2 3s3.1-1.4 3.2-3.1v-.5c.1-11.1-8.9-20-19.8-20z" class="R"/><path d="M644.9 340.7v-2.5c0-5.3-4-9.9-9.3-10.3-5.8-.4-10.7 4.2-10.7 10v2.8c-1.7 0-3 1.3-3 3v13.8c0 1.7 1.3 3 3 3h19.9c1.7 0 3-1.3 3-3v-13.8c.1-1.7-1.2-3-2.9-3zm-5.3 0h-9.3v-2.8c0-2.7 2.3-4.9 5.1-4.6 2.4.2 4.2 2.4 4.2 4.8v2.6z" class="U"/><path d="M635.5 300c-17.7 0-32.1 14.4-32.1 32.1a2.65 2.65 0 0 0 2.6 2.6h1.1a2.69 2.69 0 0 0 2.7-2.7c0-14.2 11.5-25.7 25.7-25.7 13.9 0 25.3 11.1 25.7 24.9 0 .3.3 3.2 3 3 3.5-.2 3.4-2.8 3.4-3-.5-17.3-14.7-31.2-32.1-31.2z" class="R"/><path d="M492.2 68.9c-12.3 1.4-19.4-3.5-22.7-6.9-1.3-1.3-3.5-1.3-4.8 0-3.4 3.4-10.4 8.3-22.7 6.9-2-.2-3.7 1.3-3.8 3.2-.3 11.6 1.1 46.1 28.9 55 27.8-8.9 29.2-43.4 28.9-55-.1-1.9-1.9-3.4-3.8-3.2z" class="Q"/><path d="M470.4 93.4l5.9-5.9c.9-.9.9-2.5 0-3.4s-2.5-.9-3.4 0L467 90l-5.9-5.9c-.9-.9-2.5-.9-3.4 0s-.9 2.5 0 3.4l5.9 5.9-5.9 5.9c-.9.9-.9 2.5 0 3.4s2.5.9 3.4 0l5.9-5.9 5.9 5.9c.9.9 2.5.9 3.4 0s.9-2.5 0-3.4l-5.9-5.9z" fill="#fff"/><path d="M654.6 221.7c-10.7 1.2-16.8-3-19.7-6-1.2-1.2-3-1.2-4.2 0-2.9 2.9-9.1 7.2-19.7 6-1.7-.2-3.2 1.1-3.3 2.8-.3 10.1 1 40.1 25.1 47.8 24.2-7.7 25.4-37.8 25.1-47.8 0-1.7-1.6-3-3.3-2.8z" class="Q"/><path d="M635.7 243l5.1-5.1c.8-.8.8-2.1 0-3-.8-.8-2.1-.8-3 0l-5.1 5.1-5.1-5.1c-.8-.8-2.1-.8-3 0s-.8 2.1 0 3l5.1 5.1-5.1 5.1c-.8.8-.8 2.1 0 3s2.1.8 3 0l5.1-5.1 5.1 5.1c.8.8 2.1.8 3 0 .8-.8.8-2.1 0-3l-5.1-5.1z" fill="#fff"/></g></svg>